#!OML:ASF H:\Terrain\Patient Classification 1\PLAYGROUND\JustinFriday\JustinFriday.ASF
:FULLY-SPECIFIED
:DEGREES
2203
root -14.289 27.8981 -4.56 320.067 -5.37199 1.67885
lowerback 36.9251 0.628857 0.195232
upperback 9.79249 0.906205 1.01323
thorax -7.44042 0.38795 0.631577
lowerneck 0.0794043 -2.88572 -4.23759
upperneck 15.3283 -3.66829 -0.478802
head 4.65927 -2.06689 0.402575
rclavicle -2.56122e-014 1.03368e-014
rhumerus 46.6586 2.3251 -93.0712
rradius 88.1921
rwrist -94.275
rhand -11.9033 -19.2463
rfingers 7.12502
rthumb 14.1502 -48.7444
lclavicle -2.56122e-014 1.03368e-014
lhumerus 45.4076 1.18713 92.039
lradius 92.6451
lwrist 91.2234
lhand -5.99425 -0.380702
lfingers 7.12502
lthumb 19.8379 28.6269
rfemur -27.7769 -5.14542 11.8783
rtibia 80.2597
rfoot 21.479 -10.3859
rtoes 21.4591
lfemur -24.0852 7.19123 -5.41059
ltibia 66.3111
lfoot 22.442 -4.33325
ltoes 1.51089
2204
root -14.2963 27.8223 -4.59166 322.416 -7.56457 -0.631306
lowerback 36.2558 0.330638 2.63538
upperback 7.66998 1.59323 2.06533
thorax -9.53227 0.668227 0.194267
lowerneck 5.07066 -2.97669 -5.20688
upperneck 14.0081 -4.03566 -0.725471
head 3.78632 -2.29196 0.585058
rclavicle -1.00386e-014 1.11319e-014
rhumerus 43.5308 2.37986 -92.3224
rradius 88.4257
rwrist -94.5895
rhand -12.4722 -18.7093
rfingers 7.12502
rthumb 13.602 -48.245
lclavicle -1.00386e-014 1.11319e-014
lhumerus 42.3037 1.20827 92.22
lradius 92.5701
lwrist 91.3964
lhand -5.70181 -0.595735
lfingers 7.12502
lthumb 20.119 28.3825
rfemur -30.9684 -4.44283 16.2556
rtibia 79.7946
rfoot 21.6344 -12.0651
rtoes 22.6915
lfemur -27.2654 8.29741 -1.86222
ltibia 66.282
lfoot 23.6905 -4.65306
ltoes 1.35231
2205
root -14.2744 27.9158 -4.52049 321.583 -3.56056 3.98962
lowerback 35.5609 1.27966 -2.6868
upperback 9.17238 0.67634 0.600691
thorax -7.65573 0.292555 1.80091
lowerneck 0.293816 -3.1451 -4.6874
upperneck 15.3882 -3.97084 -0.780189
head 4.6541 -2.25753 0.373147
rclavicle 1.14053e-014 2.78299e-015
rhumerus 45.7608 2.4778 -91.926
rradius 88.5852
rwrist -94.8338
rhand -13.1626 -18.3807
rfingers 7.12502
rthumb 12.9365 -47.9597
lclavicle 1.14053e-014 2.78299e-015
lhumerus 43.9285 1.33413 91.5789
lradius 92.8341
lwrist 91.9136
lhand -5.46739 -0.941731
lfingers 7.12502
lthumb 20.3443 28.0127
rfemur -29.9717 -6.27397 8.72854
rtibia 79.2311
rfoot 21.6332 -10.2061
rtoes 23.3374
lfemur -25.7426 6.58802 -9.36619
ltibia 65.1893
lfoot 22.6266 -2.9332
ltoes 2.41313
2206
root -14.2715 27.9402 -4.4623 321.237 -4.64327 3.2508
lowerback 36.1266 1.11991 -1.70919
upperback 8.74415 0.839789 0.920839
thorax -8.33954 0.370666 1.55966
lowerneck 0.458329 -2.64977 -5.40036
upperneck 15.8658 -3.38735 0.0444621
head 4.78907 -1.9748 0.767817
rclavicle 6.23687e-015 1.19271e-014
rhumerus 44.6222 2.88887 -91.4715
rradius 88.9308
rwrist -95.3494
rhand -13.7868 -18.0702
rfingers 7.12502
rthumb 12.3347 -47.6863
lclavicle 6.23687e-015 1.19271e-014
lhumerus 42.6737 1.59084 91.4951
lradius 93.1168
lwrist 91.8315
lhand -5.51533 -1.3382
lfingers 7.12502
lthumb 20.2982 27.6211
rfemur -29.2839 -5.87027 10.393
rtibia 78.3552
rfoot 21.0045 -10.9169
rtoes 24.2504
lfemur -24.9502 6.977 -7.85844
ltibia 64.7838
lfoot 22.3908 -2.94033
ltoes 3.35795
2207
root -14.2636 27.959 -4.41549 321.293 -5.56224 2.50381
lowerback 36.4965 0.900337 -0.649298
upperback 7.39407 1.01226 1.34138
thorax -9.98017 0.454113 1.37632
lowerneck 3.50861 -1.57273 -6.62715
upperneck 15.4198 -2.2611 1.25776
head 4.62111 -1.4415 1.53174
rclavicle -2.6339e-015 5.56597e-015
rhumerus 41.6433 3.26353 -90.5614
rradius 89.6949
rwrist -96.0722
rhand -14.6398 -17.5766
rfingers 7.12502
rthumb 11.5122 -47.2405
lclavicle -2.6339e-015 5.56597e-015
lhumerus 39.5517 2.05346 91.67
lradius 93.7739
lwrist 92.1806
lhand -5.44127 -1.55579
lfingers 7.12502
lthumb 20.3694 27.3959
rfemur -28.9577 -5.76522 11.8808
rtibia 77.4619
rfoot 19.9975 -12.0661
rtoes 26.6975
lfemur -24.7115 7.19634 -6.66642
ltibia 64.3807
lfoot 22.0351 -3.24723
ltoes 1.92187
2208
root -14.2588 27.9704 -4.37841 321.899 -5.95409 2.0856
lowerback 36.2063 0.765154 -0.077089
upperback 6.52785 1.09623 1.51263
thorax -10.8465 0.488282 1.2237
lowerneck 7.05342 -2.11822 -6.29786
upperneck 14.3782 -3.10753 -0.107137
head 3.57546 -1.87621 1.01696
rclavicle -8.34896e-015 1.19271e-014
rhumerus 40.009 3.44111 -89.875
rradius 90.2904
rwrist -96.3581
rhand -15.8326 -17.1216
rfingers 7.12502
rthumb 10.3616 -46.8464
lclavicle -8.34896e-015 1.19271e-014
lhumerus 37.6557 2.33016 91.6294
lradius 94.1902
lwrist 92.7151
lhand -5.35566 -1.51769
lfingers 7.12502
lthumb 20.4517 27.4252
rfemur -29.3775 -5.98898 12.7423
rtibia 76.5455
rfoot 19.0081 -12.9229
rtoes 28.3539
lfemur -25.2838 7.31404 -6.26059
ltibia 64.0585
lfoot 21.7887 -3.38741
ltoes 1.23027
2209
root -14.2706 27.8924 -4.38115 323.287 -8.29631 -0.185012
lowerback 35.9694 0.510719 2.34381
upperback 5.85299 1.82316 2.40688
thorax -11.4969 0.751716 0.609547
lowerneck 7.31219 -2.14576 -6.41463
upperneck 14.5041 -3.1576 -0.207739
head 3.57695 -1.91349 1.00507
rclavicle 1.10325e-014 -1.59028e-015
rhumerus 39.3747 3.65146 -89.3986
rradius 90.6307
rwrist -96.5885
rhand -16.6743 -16.7617
rfingers 7.12502
rthumb 9.54959 -46.5253
lclavicle 1.10325e-014 -1.59028e-015
lhumerus 36.9441 2.50012 91.666
lradius 94.649
lwrist 93.0927
lhand -5.58763 -1.52856
lfingers 7.12502
lthumb 20.2287 27.4381
rfemur -31.3076 -5.03354 17.1429
rtibia 75.6153
rfoot 18.053 -14.7349
rtoes 28.8032
lfemur -27.3185 8.56041 -2.53839
ltibia 64.4341
lfoot 22.2247 -4.02074
ltoes 2.18093
2210
root -14.233 27.9775 -4.29706 321.68 -6.02756 2.94722
lowerback 36.0289 1.00227 -0.613518
upperback 6.1502 1.18177 1.36653
thorax -11.2157 0.545045 1.31603
lowerneck 7.59244 -2.0564 -6.62641
upperneck 14.6301 -3.09041 0.0194625
head 3.58051 -1.88776 1.12082
rclavicle -1.13307e-014 -1.35174e-014
rhumerus 38.3874 3.75914 -89.0738
rradius 90.8624
rwrist -97.1556
rhand -16.6393 -16.1325
rfingers 7.12502
rthumb 9.58342 -45.8945
lclavicle -1.13307e-014 -1.35174e-014
lhumerus 36.4395 2.58491 91.7962
lradius 95.2377
lwrist 93.5216
lhand -6.13125 -1.26682
lfingers 7.12502
lthumb 19.7062 27.7543
rfemur -29.2794 -6.34803 12.231
rtibia 74.5432
rfoot 18.8964 -12.9747
rtoes 28.4629
lfemur -24.9073 7.41085 -7.38265
ltibia 63.4905
lfoot 20.6673 -3.47138
ltoes 1.24036
2211
root -14.2526 27.8925 -4.3054 323.704 -9.42575 -0.923808
lowerback 35.6952 0.522041 3.30301
upperback 6.09169 2.22264 2.78134
thorax -11.1002 0.913155 0.349616
lowerneck 4.84632 -2.12292 -6.25453
upperneck 15.3535 -2.92603 -0.237211
head 4.32733 -1.81119 0.943235
rclavicle 1.92821e-014 -5.56597e-015
rhumerus 39.2129 3.74389 -88.8659
rradius 90.6962
rwrist -97.705
rhand -16.0676 -15.4967
rfingers 7.12502
rthumb 10.135 -45.2326
lclavicle 1.92821e-014 -5.56597e-015
lhumerus 37.5714 2.61933 92.3236
lradius 95.6047
lwrist 93.7633
lhand -6.56011 -0.78827
lfingers 7.12502
lthumb 19.2939 28.2746
rfemur -31.5946 -5.09355 19.0151
rtibia 73.5695
rfoot 18.0877 -15.0007
rtoes 28.7322
lfemur -27.5918 8.87481 -1.46658
ltibia 63.6533
lfoot 21.6739 -4.81587
ltoes 0.495612
2212
root -14.2289 28.0139 -4.20172 322.194 -6.36354 2.7956
lowerback 34.9101 1.0148 -0.399841
upperback 6.64869 1.27295 1.37371
thorax -10.3552 0.580374 1.17903
lowerneck 5.37824 -2.04182 -5.72789
upperneck 15.2556 -2.82738 -0.426769
head 4.16861 -1.73855 0.794921
rclavicle 6.75868e-015 1.98785e-014
rhumerus 38.5983 3.68212 -89.1426
rradius 90.6271
rwrist -98.0586
rhand -15.8168 -14.9535
rfingers 7.12502
rthumb 10.3769 -44.6774
lclavicle 6.75868e-015 1.98785e-014
lhumerus 36.7222 2.57279 92.3882
lradius 96.087
lwrist 93.6916
lhand -6.82483 -0.676856
lfingers 7.12502
lthumb 19.0393 28.4113
rfemur -29.543 -6.95902 13.0712
rtibia 72.6116
rfoot 18.1679 -11.6036
rtoes 24.3613
lfemur -25.1353 7.27539 -7.41186
ltibia 62.4064
lfoot 20.2101 -3.6416
ltoes 1.37765
2213
root -14.2245 28.0146 -4.14376 322.414 -6.27062 2.98533
lowerback 34.2438 0.683303 -0.985129
upperback 6.17071 0.677667 1.6303
thorax -10.6345 0.322635 2.00284
lowerneck 7.14412 -1.33817 -7.09123
upperneck 14.9101 -2.06411 -0.414844
head 3.72543 -1.42652 1.06366
rclavicle 5.26779e-015 -3.10104e-014
rhumerus 37.3019 5.37488 -88.8007
rradius 90.9712
rwrist -98.7869
rhand -16.125 -14.4114
rfingers 7.12502
rthumb 10.0795 -44.15
lclavicle 5.26779e-015 -3.10104e-014
lhumerus 34.9751 4.27929 92.5817
lradius 96.8068
lwrist 93.6507
lhand -7.26369 -0.65122
lfingers 7.12502
lthumb 18.6172 28.4779
rfemur -29.7263 -7.42906 12.9945
rtibia 71.7693
rfoot 17.0834 -12.2035
rtoes 26.6752
lfemur -25.3899 7.12438 -7.85189
ltibia 62.0614
lfoot 19.7802 -3.31342
ltoes 1.8188
2214
root -14.218 28.0148 -4.08723 322.652 -6.69692 2.61406
lowerback 33.6456 0.610336 -0.446959
upperback 6.76566 0.777474 1.74118
thorax -9.74114 0.347526 1.7948
lowerneck 4.0724 -1.57069 -6.60344
upperneck 15.8692 -2.05018 -0.809601
head 4.63477 -1.43832 0.824301
rclavicle 7.55382e-015 -1.43125e-014
rhumerus 38.2874 5.3928 -88.2166
rradius 91.6352
rwrist -99.5607
rhand -16.7189 -13.9841
rfingers 7.12502
rthumb 9.50653 -43.7497
lclavicle 7.55382e-015 -1.43125e-014
lhumerus 35.9378 4.27379 92.8202
lradius 97.1238
lwrist 93.7787
lhand -7.62033 -0.529259
lfingers 7.12502
lthumb 18.2741 28.6324
rfemur -29.8133 -7.63321 13.8137
rtibia 70.8471
rfoot 15.2119 -13.5191
rtoes 31.6187
lfemur -25.5944 7.19824 -7.41101
ltibia 61.6149
lfoot 19.4596 -3.28432
ltoes 1.0957
2215
root -14.2196 28.0314 -4.04705 322.915 -7.22069 2.32181
lowerback 33.0948 0.866124 0.38609
upperback 6.84315 1.3632 1.49658
thorax -9.43394 0.610197 0.87296
lowerneck 3.35186 -2.06697 -5.00449
upperneck 16.2121 -2.65099 -0.972791
head 4.87906 -1.65632 0.460855
rclavicle 1.2921e-015 -6.36111e-015
rhumerus 38.0872 4.07153 -88.0466
rradius 92.0561
rwrist -99.8939
rhand -17.2005 -13.4792
rfingers 7.12502
rthumb 9.04191 -43.2654
lclavicle 1.2921e-015 -6.36111e-015
lhumerus 35.9018 2.94497 92.7237
lradius 97.3368
lwrist 93.9049
lhand -7.99813 -0.139929
lfingers 7.12502
lthumb 17.9106 29.0553
rfemur -30.1941 -7.69631 14.7633
rtibia 70.0912
rfoot 15.4661 -12.4151
rtoes 28.5954
lfemur -25.7459 7.47982 -6.93791
ltibia 61.146
lfoot 19.3099 -3.45622
ltoes 0.566314
